<svg width="17" height="16" viewBox="0 0 17 16" fill="none" xmlns="http://www.w3.org/2000/svg">
<g clip-path="url(#clip0_5_746)">
<path d="M14.9948 8.00001H13.3415C13.0501 7.99939 12.7666 8.09421 12.5342 8.26999C12.3018 8.44576 12.1335 8.69281 12.0548 8.97334L10.4881 14.5467C10.478 14.5813 10.457 14.6117 10.4281 14.6333C10.3993 14.655 10.3642 14.6667 10.3281 14.6667C10.2921 14.6667 10.257 14.655 10.2281 14.6333C10.1993 14.6117 10.1782 14.5813 10.1681 14.5467L6.48812 1.45334C6.47802 1.41872 6.45697 1.38831 6.42812 1.36668C6.39927 1.34504 6.36418 1.33334 6.32812 1.33334C6.29206 1.33334 6.25697 1.34504 6.22812 1.36668C6.19927 1.38831 6.17822 1.41872 6.16812 1.45334L4.60145 7.02668C4.5231 7.30611 4.35571 7.55235 4.1247 7.72802C3.89368 7.90368 3.61167 7.99918 3.32145 8.00001H1.66145" stroke="currentColor" stroke-width="1.33333" stroke-linecap="round" stroke-linejoin="round"/>
</g>
<defs>
<clipPath id="clip0_5_746">
<rect width="16" height="16" fill="white" transform="translate(0.328125)"/>
</clipPath>
</defs>
</svg>
